<svg width="1201" height="854" viewBox="0 0 1201 854" fill="none" xmlns="http://www.w3.org/2000/svg">
  <!-- Main Container -->
  <rect width="1201" height="854" rx="8" fill="#0A0A0B"/>
  <rect x="0.5" y="0.5" width="1200" height="853" rx="7.5" stroke="#246BFD" stroke-opacity="0.2"/>
  
  <!-- Header Bar -->
  <rect x="0" y="0" width="1201" height="60" fill="#1A1A1D"/>
  <rect x="24" y="20" width="120" height="20" rx="4" fill="#246BFD"/>
  <rect x="1057" y="20" width="120" height="20" rx="10" fill="#246BFD"/>
  
  <!-- Sidebar -->
  <rect x="0" y="60" width="240" height="794" fill="#141417"/>
  <rect x="24" y="84" width="192" height="16" rx="8" fill="#2A2A2E"/>
  <rect x="24" y="116" width="192" height="16" rx="8" fill="#2A2A2E"/>
  <rect x="24" y="148" width="192" height="16" rx="8" fill="#2A2A2E"/>
  <rect x="24" y="180" width="192" height="16" rx="8" fill="#2A2A2E"/>
  <rect x="24" y="212" width="192" height="16" rx="8" fill="#246BFD"/>
  
  <!-- Main Content Area -->
  <!-- Top Stats Cards -->
  <rect x="264" y="84" width="200" height="100" rx="8" fill="#1A1A1D"/>
  <rect x="284" y="104" width="160" height="12" rx="6" fill="#246BFD"/>
  <rect x="284" y="128" width="80" height="32" rx="4" fill="#4AEDC4"/>
  <text x="364" y="148" fill="#4AEDC4" font-family="Arial" font-size="24" font-weight="bold">$24.5K</text>
  
  <rect x="484" y="84" width="200" height="100" rx="8" fill="#1A1A1D"/>
  <rect x="504" y="104" width="160" height="12" rx="6" fill="#246BFD"/>
  <rect x="504" y="128" width="80" height="32" rx="4" fill="#FF6B6B"/>
  <text x="584" y="148" fill="#FF6B6B" font-family="Arial" font-size="24" font-weight="bold">156</text>
  
  <rect x="704" y="84" width="200" height="100" rx="8" fill="#1A1A1D"/>
  <rect x="724" y="104" width="160" height="12" rx="6" fill="#246BFD"/>
  <rect x="724" y="128" width="80" height="32" rx="4" fill="#FFB800"/>
  <text x="804" y="148" fill="#FFB800" font-family="Arial" font-size="24" font-weight="bold">89%</text>
  
  <rect x="924" y="84" width="200" height="100" rx="8" fill="#1A1A1D"/>
  <rect x="944" y="104" width="160" height="12" rx="6" fill="#246BFD"/>
  <rect x="944" y="128" width="80" height="32" rx="4" fill="#9F7AEA"/>
  <text x="1024" y="148" fill="#9F7AEA" font-family="Arial" font-size="24" font-weight="bold">42</text>
  
  <!-- Chart Area -->
  <rect x="264" y="204" width="640" height="300" rx="8" fill="#1A1A1D"/>
  <rect x="284" y="224" width="600" height="16" rx="8" fill="#246BFD"/>
  
  <!-- Simple Chart Lines -->
  <path d="M 284 400 Q 384 360 484 380 T 684 340 T 864 320" stroke="#4AEDC4" stroke-width="3" fill="none"/>
  <path d="M 284 420 Q 384 380 484 400 T 684 360 T 864 340" stroke="#246BFD" stroke-width="3" fill="none"/>
  <path d="M 284 440 Q 384 400 484 420 T 684 380 T 864 360" stroke="#FF6B6B" stroke-width="3" fill="none"/>
  
  <!-- Chart Legend -->
  <circle cx="294" cy="474" r="4" fill="#4AEDC4"/>
  <text x="308" y="478" fill="#FFFFFF" font-family="Arial" font-size="12">Revenue</text>
  <circle cx="374" cy="474" r="4" fill="#246BFD"/>
  <text x="388" y="478" fill="#FFFFFF" font-family="Arial" font-size="12">Leads</text>
  <circle cx="444" cy="474" r="4" fill="#FF6B6B"/>
  <text x="458" y="478" fill="#FFFFFF" font-family="Arial" font-size="12">Deals</text>
  
  <!-- Right Panel -->
  <rect x="924" y="204" width="200" height="300" rx="8" fill="#1A1A1D"/>
  <rect x="944" y="224" width="160" height="16" rx="8" fill="#246BFD"/>
  
  <!-- Activity List -->
  <rect x="944" y="260" width="160" height="32" rx="16" fill="#2A2A2E"/>
  <rect x="944" y="300" width="160" height="32" rx="16" fill="#2A2A2E"/>
  <rect x="944" y="340" width="160" height="32" rx="16" fill="#2A2A2E"/>
  <rect x="944" y="380" width="160" height="32" rx="16" fill="#2A2A2E"/>
  <rect x="944" y="420" width="160" height="32" rx="16" fill="#2A2A2E"/>
  
  <!-- Bottom Section -->
  <rect x="264" y="524" width="640" height="200" rx="8" fill="#1A1A1D"/>
  <rect x="284" y="544" width="600" height="16" rx="8" fill="#246BFD"/>
  
  <!-- Table-like structure -->
  <rect x="284" y="580" width="120" height="32" rx="4" fill="#2A2A2E"/>
  <rect x="414" y="580" width="120" height="32" rx="4" fill="#2A2A2E"/>
  <rect x="544" y="580" width="120" height="32" rx="4" fill="#2A2A2E"/>
  <rect x="674" y="580" width="120" height="32" rx="4" fill="#2A2A2E"/>
  
  <rect x="284" y="620" width="120" height="32" rx="4" fill="#141417"/>
  <rect x="414" y="620" width="120" height="32" rx="4" fill="#141417"/>
  <rect x="544" y="620" width="120" height="32" rx="4" fill="#141417"/>
  <rect x="674" y="620" width="120" height="32" rx="4" fill="#141417"/>
  
  <rect x="284" y="660" width="120" height="32" rx="4" fill="#141417"/>
  <rect x="414" y="660" width="120" height="32" rx="4" fill="#141417"/>
  <rect x="544" y="660" width="120" height="32" rx="4" fill="#141417"/>
  <rect x="674" y="660" width="120" height="32" rx="4" fill="#141417"/>
  
  <!-- Placeholder Text -->
  <text x="600.5" y="450" text-anchor="middle" fill="#666666" font-family="Arial" font-size="18">CRM Dashboard Preview</text>
</svg>